<svg width="20" height="20" viewBox="0 0 20 20" fill="currentColor" id="hashtag" xmlns="http://www.w3.org/2000/svg">
<path d="M9.43667 5.55627L11.3847 0.851666L9.33234 0.00140381L7.03067 5.55627H9.43667Z" />
<path d="M16.6517 5.5562L18.6007 0.851596L16.5477 0C16.5477 0 15.5407 2.4308 14.2467 5.5562H16.6517Z" />
<path d="M15.731 7.77869L13.89 12.2223H11.4843C12.0827 10.7798 12.7153 9.24991 13.3253 7.77869H15.731Z" />
<path d="M10.564 14.4448C9.44466 17.1486 8.615 19.1487 8.615 19.1487L10.668 20L12.969 14.4448H10.564Z" />
<path d="M3.349 14.4448L1.39967 19.1487L3.45233 20L5.75267 14.4448H3.349Z" />
<path d="M17.7777 12.2223H0V14.4448H17.7777V12.2223Z" />
<path d="M6.11001 7.77869L4.269 12.2223H6.67367L8.51567 7.77869H6.11001Z" />
<path d="M20 5.55621H2.22267V7.77869H20V5.55621Z" />
</svg>
