<svg width="80" height="82" viewBox="0 0 80 82" fill="none" xmlns="http://www.w3.org/2000/svg">
<path d="M0 54.2904L0.389899 54.2733C2.46559 54.1816 15.214 53.0666 23.661 51.7928C32.108 50.519 40.8979 47.6314 40.8979 47.6314C40.8979 47.6314 31.5316 56.1933 8.79021 78.2291C8.79021 78.2291 24.7579 67.3529 34.7038 59.068C44.6452 50.7821 48.5643 45.0842 48.5643 45.0842C48.5643 45.0842 52.3389 44.8382 55.411 43.7126C57.3747 42.9583 59.2082 41.9017 60.8456 40.5811L62.4806 41.3545C62.4806 41.3545 61.958 43.0827 62.4806 44.418C62.7219 45.0306 64.2155 46.102 64.2155 46.102C64.2155 46.102 63.4431 50.1027 63.7551 51.4523C64.316 53.8901 65.7188 54.6116 65.7188 54.6116C65.7188 54.6116 64.4022 59.0617 64.8462 61.6812C65.2902 64.3007 67.0245 64.7695 67.0245 64.7695C67.0245 64.7695 66.2939 73.852 67.0245 78.0677C67.7551 82.2834 69.9455 81.966 69.9455 81.966C69.9455 81.966 69.5042 71.4841 72.3018 60.7171C74.203 53.3895 79.5516 46.4169 79.931 40.5826C80.3096 34.7777 79.0677 31.9418 77.7271 29.7394C75.8485 26.6522 73.5097 25.7774 73.5097 25.7774C73.5097 25.7774 74.4928 19.9292 74.135 14.6924C73.7771 9.45565 73.1733 8.72844 72.8347 5.03448C72.4962 1.34051 74.5157 0.528789 73.5097 0.0453752C72.5037 -0.438039 68.8123 3.10054 68.8123 3.10054C68.8123 3.10054 66.5755 2.44291 64.2149 4.54628C61.8543 6.64965 59.3712 11.5163 59.3712 11.5163C59.3712 11.5163 56.6484 3.94631 50.255 3.10054C43.8616 2.25478 33.8 8.13115 33.8 8.13115L12.8781 19.7214L3.99183 22.5258C3.99183 22.5258 5.07749 24.7267 12.088 23.8957C14.6616 23.5907 20.5778 21.3106 20.5778 21.3106C20.5778 21.3106 22.719 22.0202 24.6751 21.6713C27.6125 21.1487 31.8942 18.9749 31.8942 18.9749C32.1295 19.4184 32.4702 19.7973 32.8864 20.078C33.3027 20.3587 33.7817 20.5326 34.2811 20.5844C36.0685 20.8288 39.0435 19.3956 39.0435 19.3956C39.0435 19.3956 38.8478 20.8319 39.8691 21.3109C40.8905 21.7898 43.1336 21.3109 43.1336 21.3109C43.1319 21.3137 42.3717 22.7595 43.1336 23.4051C43.8955 24.0507 46.1812 23.8957 46.1812 23.8957C46.1812 23.8957 46.3182 25.134 47.1598 25.7782C48.0014 26.4224 50.0234 26.6268 50.0234 26.6268C50.0234 26.6268 48.7183 28.8194 46.563 31.8398C45.2034 33.8229 44.1906 36.0224 43.5677 38.3447C43.5677 38.3447 33.2436 44.9518 22.4094 48.6874C12.7324 52.0221 0 54.2904 0 54.2904Z" fill="black"/>
<path d="M59.5481 11.7944C59.0269 14.5486 57.9669 17.1729 56.4289 19.5165C53.9355 23.2115 49.5702 26.5749 49.5702 26.5749" fill="black"/>
<path d="M39.0698 6.00073C39.0698 6.00073 38.7828 7.5172 39.3554 8.10518C39.928 8.69316 45.0005 7.18255 48.168 8.55255C51.3355 9.92255 51.141 12.2546 54.0264 13.8304C56.9117 15.4062 58.9618 13.8304 58.9618 13.8304" fill="black"/>
<path d="M19.8155 21.3893L42.255 8.10864Z" fill="black"/>
<path d="M31.6905 18.7778L48.7795 8.81512Z" fill="black"/>
<path d="M39.0893 19.1313L51.5885 11.5427Z" fill="black"/>
<path d="M43.3764 21.0497L54.4793 14.004Z" fill="black"/>
<path d="M46.0403 23.9694L58.0436 16.3995Z" fill="black"/>
<path d="M76.3083 40.9852C74.1637 44.431 72.3549 48.0748 70.907 51.8664C68.6074 57.9687 67.1085 65.3938 67.1085 65.3938" fill="black"/>
<path d="M63.955 47.3543C65.0538 45.2378 66.1137 43.2017 68.3482 38.8887C70.5827 34.5757 72.8457 31.0563 72.8457 31.0563" fill="black"/>
<path d="M62.438 40.9851C63.366 38.5179 64.4347 36.1058 65.6385 33.7608C66.7876 31.6211 68.0837 29.5634 69.5173 27.603" fill="black"/>
<path d="M65.3901 20.8319C65.3901 20.8319 62.668 24.4196 61.3721 26.8495C60.6667 28.1487 60.0267 29.4823 59.4548 30.8455" fill="black"/>
<path d="M67.3521 24.9622C67.3521 24.9622 63.7231 30.3824 62.0824 34.1745C60.4418 37.9667 60.791 40.1298 60.791 40.1298" fill="black"/>
<path d="M61.3611 36.2285C60.7527 36.4896 60.2363 36.7717 59.7442 36.5187C59.2521 36.2657 58.8656 34.9343 58.8656 34.9343" fill="black"/>
<path d="M65.5729 54.8254C65.5729 54.8254 72.7091 40.756 74.8835 36.1355Z" fill="black"/>
<path d="M39.9242 43.3675L37.2681 45.8326L34.2696 49.1847" fill="black"/>
<path d="M72.8451 25.4942C71.1894 24.5445 69.6867 23.35 68.388 21.9513C66.286 19.6662 65.3503 19.4512 64.4349 16.353C63.9286 14.6307 64.0563 13.4807 64.1908 12.2891C64.3614 11.2572 64.6834 10.2561 65.1465 9.31818C66.2089 7.03811 68.6856 7.23162 68.6856 7.23162C68.6856 7.23162 67.7888 8.25798 67.9566 8.84009C68.1243 9.4222 69.1843 9.78036 69.9012 9.31791C70.618 8.85547 71.0216 8.36727 70.7809 6.91339C70.5402 5.45952 68.9406 3.50519 68.9406 3.50519" fill="black"/>
</svg>
